# xmcd
#
# Track frame offsets: 
#        150
#        15482
#        35742
#        54717
#        69485
#        85912
#        98322
#        113322
#        132680
#        137930
#        153360
#        162205
#        173445
#        202917
#        207485
#
# Disc length: 2867 seconds
#
# Revision: 5
# Processed by: cddbd v1.5.1PL0 Copyright (c) Steve Scherf et al.
# Submitted via: ExactAudioCopy v0.95a5
#
DISCID=c10b310f
DTITLE=Bad Livers - Hogs on the Highway
DYEAR=1997
DGENRE=Bluegrass
TTITLE0=Hogs on the Highway
TTITLE1=Lathe Crick
TTITLE2=Counting the Crossties
TTITLE3=Shufflin' to Memphis
TTITLE4=Dallas, Texas
TTITLE5=Corn Liquor Made a Fool Out of Me
TTITLE6=Saludamas a Tejas
TTITLE7=The National Blues
TTITLE8=Mr. Modal
TTITLE9=My Old Man
TTITLE10=Cluck Old Hen
TTITLE11=News not the Weather
TTITLE12=Falling Down the Stairs (With a Pistol in my Hand)
TTITLE13=(Untitled #1)
TTITLE14=(Untitled #2)
EXTD=
EXTT0=
EXTT1=
EXTT2=
EXTT3=
EXTT4=
EXTT5=
EXTT6=
EXTT7=
EXTT8=
EXTT9=
EXTT10=
EXTT11=
EXTT12=
EXTT13=Untitled on the CD.  Instrumental.
EXTT14=Untitled on the CD.  Instrumental.
PLAYORDER=
